<svg width="1024" height="1024" viewBox="0 0 1024 1024" fill="none" xmlns="http://www.w3.org/2000/svg">
<circle cx="512" cy="512" r="512" fill="#0CA678"/>
<path d="M512 192C587.628 192 657.128 218.237 711.896 262.104L640.553 333.446C604.392 307.366 559.99 292 512 292C390.497 292 292 390.497 292 512C292 633.503 390.497 732 512 732C559.991 732 604.392 716.633 640.553 690.553L711.896 761.896C657.127 805.762 587.628 832 512 832C335.269 832 192 688.731 192 512C192 335.269 335.269 192 512 192Z" fill="white"/>
<circle cx="512" cy="512" r="50" fill="white"/>
<circle cx="647" cy="512" r="50" fill="white"/>
<circle cx="782" cy="512" r="50" fill="white"/>
</svg>
